<?xml version="1.0" encoding="UTF-8"?>
<!DOCTYPE svg PUBLIC "-//W3C//DTD SVG 1.1//EN" "http://www.w3.org/Graphics/SVG/1.1/DTD/svg11.dtd">
<svg xmlns="http://www.w3.org/2000/svg" version="1.1" width="500px" height="500px" style="shape-rendering:geometricPrecision; text-rendering:geometricPrecision; image-rendering:optimizeQuality; fill-rule:evenodd; clip-rule:evenodd" xmlns:xlink="http://www.w3.org/1999/xlink">
<g><path style="opacity:1" fill="#ffa83d" d="M 194.5,210.5 C 195.758,212.687 196.758,215.02 197.5,217.5C 195.513,218.343 193.346,219.01 191,219.5C 189.291,218.43 187.791,217.097 186.5,215.5C 181.138,219.11 181.305,222.443 187,225.5C 188.978,223.239 191.478,221.905 194.5,221.5C 195.833,221.667 197.167,221.833 198.5,222C 199.751,226.19 198.418,229.523 194.5,232C 190.572,233.893 186.572,234.393 182.5,233.5C 181.486,232.326 180.153,231.66 178.5,231.5C 170.652,224.144 170.652,216.644 178.5,209C 184.301,205.563 189.634,206.063 194.5,210.5 Z"/></g>
<g><path style="opacity:1" fill="#ffa633" d="M 220.5,212.5 C 220.294,215.495 220.96,218.162 222.5,220.5C 224.258,223.854 225.258,227.521 225.5,231.5C 225.5,232.167 225.5,232.833 225.5,233.5C 222.428,233.817 219.428,233.484 216.5,232.5C 215.288,230.077 213.288,229.077 210.5,229.5C 210.67,230.822 210.337,231.989 209.5,233C 207.351,233.579 205.185,234.079 203,234.5C 201.338,234.612 200.171,233.946 199.5,232.5C 202.301,224.262 204.801,215.928 207,207.5C 210.744,206.374 214.577,206.207 218.5,207C 219.861,208.584 220.528,210.418 220.5,212.5 Z M 214.5,220.5 C 214.715,222.179 214.048,223.179 212.5,223.5C 212.34,221.801 212.506,220.134 213,218.5C 213.278,219.416 213.778,220.082 214.5,220.5 Z"/></g>
<g><path style="opacity:0.059" fill="#fff9e4" d="M 227.5,207.5 C 227.5,216.167 227.5,224.833 227.5,233.5C 226.833,233.5 226.167,233.5 225.5,233.5C 225.5,232.833 225.5,232.167 225.5,231.5C 226.167,223.5 226.833,215.5 227.5,207.5 Z"/></g>
<g><path style="opacity:1" fill="#ffa32d" d="M 246.5,209.5 C 246.833,210.5 247.5,211.167 248.5,211.5C 249.404,212.209 249.737,213.209 249.5,214.5C 249.5,216.167 249.5,217.833 249.5,219.5C 248.069,225.891 244.069,228.224 237.5,226.5C 238.138,234.194 234.805,236.527 227.5,233.5C 227.5,224.833 227.5,216.167 227.5,207.5C 228.274,206.853 229.274,206.52 230.5,206.5C 235.481,207.165 240.481,207.665 245.5,208C 246.056,208.383 246.389,208.883 246.5,209.5 Z M 239.5,214.5 C 240.234,215.708 240.567,217.041 240.5,218.5C 239.292,219.234 237.959,219.567 236.5,219.5C 236.5,217.833 236.5,216.167 236.5,214.5C 237.5,214.5 238.5,214.5 239.5,214.5 Z"/></g>
<g><path style="opacity:1" fill="#ffa637" d="M 269.5,209.5 C 269.427,211.027 270.094,212.027 271.5,212.5C 272.774,213.189 272.774,214.023 271.5,215C 270.207,215.49 268.873,215.657 267.5,215.5C 266.167,215.5 264.833,215.5 263.5,215.5C 262.791,214.596 261.791,214.263 260.5,214.5C 259.243,215.623 259.576,216.289 261.5,216.5C 261.833,216.5 262.167,216.5 262.5,216.5C 263.209,217.404 264.209,217.737 265.5,217.5C 272.409,217.953 274.909,221.62 273,228.5C 267.992,234.046 262.159,235.379 255.5,232.5C 255.027,231.094 254.027,230.427 252.5,230.5C 250.901,229.201 250.401,227.535 251,225.5C 253.041,224.577 255.208,224.244 257.5,224.5C 258.167,224.833 258.833,225.167 259.5,225.5C 259.62,226.586 260.287,227.253 261.5,227.5C 262.416,227.457 263.083,227.124 263.5,226.5C 264.439,225.673 264.105,225.006 262.5,224.5C 260.698,223.542 258.698,222.875 256.5,222.5C 253.203,222.368 251.537,220.702 251.5,217.5C 251.5,216.167 251.5,214.833 251.5,213.5C 253.136,208.88 256.469,206.546 261.5,206.5C 264.466,206.9 267.132,207.9 269.5,209.5 Z M 259.5,225.5 C 260.209,224.596 261.209,224.263 262.5,224.5C 264.105,225.006 264.439,225.673 263.5,226.5C 262.041,226.567 260.708,226.234 259.5,225.5 Z"/></g>
<g><path style="opacity:1" fill="#ffa73a" d="M 276.5,206.5 C 279.167,206.833 281.833,207.167 284.5,207.5C 284.5,210.833 284.5,214.167 284.5,217.5C 285.833,217.5 287.167,217.5 288.5,217.5C 288.18,214.102 288.513,210.768 289.5,207.5C 292.552,206.689 295.385,206.689 298,207.5C 298.5,216.16 298.666,224.827 298.5,233.5C 295.007,233.998 291.674,233.998 288.5,233.5C 288.5,230.5 288.5,227.5 288.5,224.5C 287.167,224.5 285.833,224.5 284.5,224.5C 286.92,233.338 283.92,236.338 275.5,233.5C 273.91,224.258 274.243,215.258 276.5,206.5 Z"/></g>
<g><path style="opacity:1" fill="#ffa427" d="M 318.5,207.5 C 318.92,212.529 320.254,217.195 322.5,221.5C 322.41,224.152 323.076,226.485 324.5,228.5C 324.5,228.833 324.5,229.167 324.5,229.5C 324.433,230.959 324.766,232.292 325.5,233.5C 322.332,234.444 318.999,234.444 315.5,233.5C 315.5,232.167 315.5,230.833 315.5,229.5C 314.5,229.5 313.5,229.5 312.5,229.5C 311.167,229.5 309.833,229.5 308.5,229.5C 308.5,230.833 308.5,232.167 308.5,233.5C 305.542,234.541 302.542,234.541 299.5,233.5C 299.721,230.933 300.388,228.599 301.5,226.5C 303.163,224.562 303.829,222.228 303.5,219.5C 305.163,217.562 305.829,215.228 305.5,212.5C 305.472,210.418 306.139,208.584 307.5,207C 311.129,207.11 314.796,207.276 318.5,207.5 Z M 313.5,218.5 C 313.923,220.781 313.256,222.448 311.5,223.5C 311.402,221.447 312.069,219.78 313.5,218.5 Z"/></g>
<g><path style="opacity:0.004" fill="#ffd0cf" d="M 246.5,209.5 C 247.833,209.5 248.5,210.167 248.5,211.5C 247.5,211.167 246.833,210.5 246.5,209.5 Z"/></g>
<g><path style="opacity:0.345" fill="#ffc2c3" d="M 269.5,209.5 C 270.906,209.973 271.573,210.973 271.5,212.5C 270.094,212.027 269.427,211.027 269.5,209.5 Z"/></g>
<g><path style="opacity:0.867" fill="#ffbc8c" d="M 239.5,214.5 C 238.5,214.5 237.5,214.5 236.5,214.5C 236.5,216.167 236.5,217.833 236.5,219.5C 237.959,219.567 239.292,219.234 240.5,218.5C 239.448,220.256 237.781,220.923 235.5,220.5C 235.5,218.167 235.5,215.833 235.5,213.5C 237.099,213.232 238.432,213.566 239.5,214.5 Z"/></g>
<g><path style="opacity:0.024" fill="#ffcacd" d="M 194.5,210.5 C 197.535,212.209 198.535,214.543 197.5,217.5C 196.758,215.02 195.758,212.687 194.5,210.5 Z"/></g>
<g><path style="opacity:0.506" fill="#ffc2c3" d="M 260.5,214.5 C 260.833,215.167 261.167,215.833 261.5,216.5C 259.576,216.289 259.243,215.623 260.5,214.5 Z"/></g>
<g><path style="opacity:0.094" fill="#ffc6cf" d="M 318.5,207.5 C 320.435,211.895 321.769,216.562 322.5,221.5C 320.254,217.195 318.92,212.529 318.5,207.5 Z"/></g>
<g><path style="opacity:0.333" fill="#ffd0c1" d="M 263.5,215.5 C 264.833,215.5 266.167,215.5 267.5,215.5C 266.833,216.167 266.167,216.833 265.5,217.5C 264.209,217.737 263.209,217.404 262.5,216.5C 263.167,216.5 263.5,216.167 263.5,215.5 Z"/></g>
<g><path style="opacity:1" fill="#ffd27b" d="M 305.5,212.5 C 305.829,215.228 305.163,217.562 303.5,219.5C 303.721,216.933 304.388,214.599 305.5,212.5 Z"/></g>
<g><path style="opacity:0.133" fill="#ffbbba" d="M 220.5,212.5 C 221.768,214.905 222.435,217.572 222.5,220.5C 220.96,218.162 220.294,215.495 220.5,212.5 Z"/></g>
<g><path style="opacity:0.118" fill="#ffdce7" d="M 251.5,213.5 C 251.5,214.833 251.5,216.167 251.5,217.5C 250.833,218.167 250.167,218.833 249.5,219.5C 249.5,217.833 249.5,216.167 249.5,214.5C 250.167,214.167 250.833,213.833 251.5,213.5 Z"/></g>
<g><path style="opacity:0.051" fill="#ffc8c4" d="M 313.5,218.5 C 312.069,219.78 311.402,221.447 311.5,223.5C 310.505,220.424 311.005,217.424 313,214.5C 313.49,215.793 313.657,217.127 313.5,218.5 Z"/></g>
<g><path style="opacity:0.133" fill="#ffd7d7" d="M 214.5,220.5 C 213.778,220.082 213.278,219.416 213,218.5C 212.506,220.134 212.34,221.801 212.5,223.5C 211.299,220.595 211.466,217.595 213,214.5C 214.128,216.345 214.628,218.345 214.5,220.5 Z"/></g>
<g><path style="opacity:0.098" fill="#ffc6d5" d="M 322.5,221.5 C 323.924,223.515 324.59,225.848 324.5,228.5C 323.076,226.485 322.41,224.152 322.5,221.5 Z"/></g>
<g><path style="opacity:0.012" fill="#ffe1cf" d="M 256.5,222.5 C 258.698,222.875 260.698,223.542 262.5,224.5C 261.209,224.263 260.209,224.596 259.5,225.5C 258.833,225.167 258.167,224.833 257.5,224.5C 257.167,223.833 256.833,223.167 256.5,222.5 Z"/></g>
<g><path style="opacity:1" fill="#ffd179" d="M 303.5,219.5 C 303.829,222.228 303.163,224.562 301.5,226.5C 301.721,223.933 302.388,221.599 303.5,219.5 Z"/></g>
<g><path style="opacity:0.298" fill="#ffc5a5" d="M 259.5,225.5 C 260.708,226.234 262.041,226.567 263.5,226.5C 263.083,227.124 262.416,227.457 261.5,227.5C 260.287,227.253 259.62,226.586 259.5,225.5 Z"/></g>
<g><path style="opacity:0.624" fill="#ffc0b3" d="M 312.5,229.5 C 311.791,230.404 310.791,230.737 309.5,230.5C 309.737,231.791 309.404,232.791 308.5,233.5C 308.5,232.167 308.5,230.833 308.5,229.5C 309.833,229.5 311.167,229.5 312.5,229.5 Z"/></g>
<g><path style="opacity:0.392" fill="#ffe1b0" d="M 252.5,230.5 C 254.027,230.427 255.027,231.094 255.5,232.5C 253.973,232.573 252.973,231.906 252.5,230.5 Z"/></g>
<g><path style="opacity:0.006" fill="#fff2e0" d="M 178.5,231.5 C 180.153,231.66 181.486,232.326 182.5,233.5C 180.62,233.771 179.287,233.104 178.5,231.5 Z"/></g>
<g><path style="opacity:0.016" fill="#ffd1e4" d="M 324.5,229.5 C 326.138,230.705 326.471,232.038 325.5,233.5C 324.766,232.292 324.433,230.959 324.5,229.5 Z"/></g>
</svg>
