<?xml version="1.0" encoding="UTF-8"?>
<!DOCTYPE svg PUBLIC "-//W3C//DTD SVG 1.1//EN" "http://www.w3.org/Graphics/SVG/1.1/DTD/svg11.dtd">
<svg xmlns="http://www.w3.org/2000/svg" version="1.1" width="500px" height="500px" style="shape-rendering:geometricPrecision; text-rendering:geometricPrecision; image-rendering:optimizeQuality; fill-rule:evenodd; clip-rule:evenodd" xmlns:xlink="http://www.w3.org/1999/xlink">
<g><path style="opacity:1" fill="#ffa431" d="M 43.5,201.5 C 46.5176,201.704 49.5176,202.037 52.5,202.5C 52.9731,203.906 53.9731,204.573 55.5,204.5C 55.427,206.027 56.0937,207.027 57.5,207.5C 57.5,208.833 57.5,210.167 57.5,211.5C 54.8728,212.092 52.2062,212.425 49.5,212.5C 48.0985,209.201 46.2652,208.868 44,211.5C 42.5534,218.239 44.7201,220.239 50.5,217.5C 53.3915,216.597 56.3915,216.264 59.5,216.5C 60.2959,219.619 59.2959,222.285 56.5,224.5C 54.9731,224.427 53.9731,225.094 53.5,226.5C 49.9463,228.484 46.2796,228.817 42.5,227.5C 40.7772,225.782 38.7772,224.449 36.5,223.5C 34.8166,219.364 34.1499,215.031 34.5,210.5C 35.1289,205.204 38.1289,202.204 43.5,201.5 Z"/></g>
<g><path style="opacity:0.008" fill="#ffeae3" d="M 43.5,201.5 C 46.6274,200.185 49.6274,200.518 52.5,202.5C 49.5176,202.037 46.5176,201.704 43.5,201.5 Z"/></g>
<g><path style="opacity:1" fill="#ffa634" d="M 79.5,201.5 C 79.9205,206.529 81.2538,211.195 83.5,215.5C 84.8699,218.619 85.8699,221.952 86.5,225.5C 86.5,226.167 86.5,226.833 86.5,227.5C 83.5,228.833 80.5,228.833 77.5,227.5C 77.5,226.167 77.5,224.833 77.5,223.5C 74.8333,223.5 72.1667,223.5 69.5,223.5C 69.5,224.833 69.5,226.167 69.5,227.5C 68.2067,228.158 66.7067,228.492 65,228.5C 63.0145,228.431 61.5145,227.765 60.5,226.5C 62.2798,225.01 62.9465,223.01 62.5,220.5C 64.1628,218.562 64.8294,216.228 64.5,213.5C 64.4326,212.041 64.7659,210.708 65.5,209.5C 67.1628,207.562 67.8294,205.228 67.5,202.5C 67.6107,201.883 67.944,201.383 68.5,201C 72.3575,200.19 76.0242,200.357 79.5,201.5 Z M 74.5,213.5 C 74.7678,215.099 74.4345,216.432 73.5,217.5C 72.0462,215.737 72.3796,214.403 74.5,213.5 Z"/></g>
<g><path style="opacity:0.508" fill="#ffd992" d="M 88.5,201.5 C 88.5,210.167 88.5,218.833 88.5,227.5C 87.8333,227.5 87.1667,227.5 86.5,227.5C 86.5,226.833 86.5,226.167 86.5,225.5C 87.1667,217.5 87.8333,209.5 88.5,201.5 Z"/></g>
<g><path style="opacity:1" fill="#ffa42f" d="M 108.5,204.5 C 109.344,208.099 109.677,211.766 109.5,215.5C 108.712,218.621 106.712,220.288 103.5,220.5C 101.167,220.5 98.8333,220.5 96.5,220.5C 96.5,222.833 96.5,225.167 96.5,227.5C 93.8333,228.833 91.1667,228.833 88.5,227.5C 88.5,218.833 88.5,210.167 88.5,201.5C 92.9811,200.352 97.6478,200.185 102.5,201C 105.025,201.424 107.025,202.59 108.5,204.5 Z M 100.5,208.5 C 100.5,210.167 100.5,211.833 100.5,213.5C 99.5,213.5 98.5,213.5 97.5,213.5C 97.5,211.833 97.5,210.167 97.5,208.5C 98.5,208.5 99.5,208.5 100.5,208.5 Z"/></g>
<g><path style="opacity:1" fill="#ffa11f" d="M 120.5,201.5 C 120.5,210.167 120.5,218.833 120.5,227.5C 117.833,227.5 115.167,227.5 112.5,227.5C 112.5,218.833 112.5,210.167 112.5,201.5C 115.167,200.167 117.833,200.167 120.5,201.5 Z"/></g>
<g><path style="opacity:1" fill="#ffa535" d="M 143.5,201.5 C 143.5,203.833 143.5,206.167 143.5,208.5C 141.833,208.5 140.167,208.5 138.5,208.5C 138.5,214.833 138.5,221.167 138.5,227.5C 135.396,228.775 132.396,228.775 129.5,227.5C 129.5,221.167 129.5,214.833 129.5,208.5C 127.5,208.5 125.5,208.5 123.5,208.5C 123.5,206.167 123.5,203.833 123.5,201.5C 130.167,200.167 136.833,200.167 143.5,201.5 Z"/></g>
<g><path style="opacity:0.452" fill="#ffcdc5" d="M 143.5,201.5 C 144.473,203.948 144.806,206.615 144.5,209.5C 142.833,209.5 141.167,209.5 139.5,209.5C 139.823,215.69 139.49,221.69 138.5,227.5C 138.5,221.167 138.5,214.833 138.5,208.5C 140.167,208.5 141.833,208.5 143.5,208.5C 143.5,206.167 143.5,203.833 143.5,201.5 Z"/></g>
<g><path style="opacity:1" fill="#ffa737" d="M 163.5,201.5 C 163.899,205.116 164.899,208.45 166.5,211.5C 168.435,215.895 169.769,220.562 170.5,225.5C 170.5,226.167 170.5,226.833 170.5,227.5C 167.5,228.833 164.5,228.833 161.5,227.5C 161.5,226.167 161.5,224.833 161.5,223.5C 159.143,223.337 156.81,223.503 154.5,224C 153.663,225.011 153.33,226.178 153.5,227.5C 151.034,228.634 148.367,228.801 145.5,228C 144.209,226.708 144.209,225.542 145.5,224.5C 147.163,222.562 147.829,220.228 147.5,217.5C 147.433,216.041 147.766,214.708 148.5,213.5C 150.074,211.898 150.741,209.898 150.5,207.5C 150.317,205.064 150.984,202.897 152.5,201C 156.358,200.19 160.024,200.357 163.5,201.5 Z M 158.5,212.5 C 158.784,214.415 158.451,216.081 157.5,217.5C 156.739,215.741 157.072,214.074 158.5,212.5 Z"/></g>
<g><path style="opacity:0.344" fill="#ffe9ae" d="M 172.5,201.5 C 172.5,210.167 172.5,218.833 172.5,227.5C 171.833,227.5 171.167,227.5 170.5,227.5C 170.5,226.833 170.5,226.167 170.5,225.5C 171.167,217.5 171.833,209.5 172.5,201.5 Z"/></g>
<g><path style="opacity:1" fill="#ffa43a" d="M 172.5,227.5 C 172.5,218.833 172.5,210.167 172.5,201.5C 175.23,200.183 178.063,200.183 181,201.5C 181.667,210.167 181.667,218.833 181,227.5C 178.063,228.817 175.23,228.817 172.5,227.5 Z"/></g>
<g><path style="opacity:1" fill="#ffa93c" d="M 194.5,201.5 C 194.707,204.241 195.707,206.574 197.5,208.5C 198.674,209.514 199.34,210.847 199.5,212.5C 199.709,213.922 200.209,215.255 201,216.5C 201.499,211.511 201.666,206.511 201.5,201.5C 204.23,200.183 207.063,200.183 210,201.5C 210.667,210.167 210.667,218.833 210,227.5C 206.591,228.622 203.091,228.789 199.5,228C 197.088,224.01 195.088,219.843 193.5,215.5C 193.539,214.244 193.039,213.244 192,212.5C 191.501,217.489 191.334,222.489 191.5,227.5C 189.105,228.814 186.605,228.814 184,227.5C 183.168,218.814 183.335,210.147 184.5,201.5C 187.864,200.174 191.197,200.174 194.5,201.5 Z"/></g>
<g><path style="opacity:0.075" fill="#fff1df" d="M 201.5,201.5 C 201.666,206.511 201.499,211.511 201,216.5C 200.209,215.255 199.709,213.922 199.5,212.5C 200.167,208.833 200.833,205.167 201.5,201.5 Z"/></g>
<g><path style="opacity:1" fill="#ffac43" d="M 228.5,201.5 C 228.5,203.833 228.5,206.167 228.5,208.5C 225.833,208.5 223.167,208.5 220.5,208.5C 220.5,209.5 220.5,210.5 220.5,211.5C 221.5,211.5 222.5,211.5 223.5,211.5C 225.167,211.5 226.833,211.5 228.5,211.5C 228.795,213.735 228.461,215.735 227.5,217.5C 225.167,217.5 222.833,217.5 220.5,217.5C 220.5,218.5 220.5,219.5 220.5,220.5C 223.167,220.5 225.833,220.5 228.5,220.5C 229.725,221.152 230.392,222.319 230.5,224C 230.441,225.436 230.108,226.769 229.5,228C 223.833,228.667 218.167,228.667 212.5,228C 211.167,219 211.167,210 212.5,201C 218.016,200.183 223.35,200.349 228.5,201.5 Z"/></g>
<g><path style="opacity:0.444" fill="#ffb3b3" d="M 228.5,201.5 C 229.224,203.218 229.891,205.052 230.5,207C 229.956,207.717 229.289,208.217 228.5,208.5C 228.5,206.167 228.5,203.833 228.5,201.5 Z"/></g>
<g><path style="opacity:1" fill="#ffa83d" d="M 254.5,203.5 C 254.427,205.027 255.094,206.027 256.5,206.5C 257.534,208.817 256.534,209.817 253.5,209.5C 251.833,209.5 250.167,209.5 248.5,209.5C 247.791,208.596 246.791,208.263 245.5,208.5C 244.957,208.56 244.624,208.893 244.5,209.5C 245.325,210.386 246.325,210.719 247.5,210.5C 248.568,211.434 249.901,211.768 251.5,211.5C 254.561,211.444 256.728,212.778 258,215.5C 259.401,224.274 255.568,228.607 246.5,228.5C 244.286,228.389 242.286,227.722 240.5,226.5C 240.027,225.094 239.027,224.427 237.5,224.5C 234.192,219.836 235.525,217.836 241.5,218.5C 242.609,218.557 243.609,218.89 244.5,219.5C 244.62,220.586 245.287,221.253 246.5,221.5C 247.416,221.457 248.083,221.124 248.5,220.5C 248.672,219.508 248.338,218.842 247.5,218.5C 245.626,217.715 243.626,217.048 241.5,216.5C 235.315,214.312 233.982,210.312 237.5,204.5C 242.966,199.552 248.632,199.219 254.5,203.5 Z M 244.5,219.5 C 245.209,218.596 246.209,218.263 247.5,218.5C 248.338,218.842 248.672,219.508 248.5,220.5C 247.041,220.567 245.708,220.234 244.5,219.5 Z"/></g>
<g><path style="opacity:1" fill="#ffa832" d="M 268.5,201.5 C 268.5,204.833 268.5,208.167 268.5,211.5C 270.5,211.5 272.5,211.5 274.5,211.5C 274.5,208.167 274.5,204.833 274.5,201.5C 277.167,200.167 279.833,200.167 282.5,201.5C 282.5,210.167 282.5,218.833 282.5,227.5C 280.034,228.634 277.367,228.801 274.5,228C 273.868,224.73 273.201,221.563 272.5,218.5C 271.167,218.5 269.833,218.5 268.5,218.5C 268.5,221.5 268.5,224.5 268.5,227.5C 265.77,228.817 262.937,228.817 260,227.5C 259.333,218.833 259.333,210.167 260,201.5C 262.937,200.183 265.77,200.183 268.5,201.5 Z"/></g>
<g><path style="opacity:0.213" fill="#ffead1" d="M 268.5,201.5 C 269.477,204.287 269.81,207.287 269.5,210.5C 270.833,210.5 272.167,210.5 273.5,210.5C 273.19,207.287 273.523,204.287 274.5,201.5C 274.5,204.833 274.5,208.167 274.5,211.5C 272.5,211.5 270.5,211.5 268.5,211.5C 268.5,208.167 268.5,204.833 268.5,201.5 Z"/></g>
<g><path style="opacity:0.636" fill="#ffc0b2" d="M 282.5,201.5 C 283.649,201.791 284.316,202.624 284.5,204C 284.458,211.604 284.458,219.104 284.5,226.5C 284.5,226.833 284.5,227.167 284.5,227.5C 283.833,227.5 283.167,227.5 282.5,227.5C 282.5,218.833 282.5,210.167 282.5,201.5 Z"/></g>
<g><path style="opacity:1" fill="#ffa630" d="M 303.5,201.5 C 303.92,206.529 305.254,211.195 307.5,215.5C 307.41,218.152 308.076,220.485 309.5,222.5C 311.008,224.171 311.341,226.004 310.5,228C 307.304,228.805 304.304,228.638 301.5,227.5C 301.5,226.167 301.5,224.833 301.5,223.5C 298.833,223.5 296.167,223.5 293.5,223.5C 293.5,224.833 293.5,226.167 293.5,227.5C 290.604,228.775 287.604,228.775 284.5,227.5C 284.5,227.167 284.5,226.833 284.5,226.5C 286.28,225.01 286.946,223.01 286.5,220.5C 288.163,218.562 288.829,216.228 288.5,213.5C 290.163,211.562 290.829,209.228 290.5,206.5C 290.472,204.418 291.139,202.584 292.5,201C 296.255,200.245 299.922,200.411 303.5,201.5 Z M 298.5,212.5 C 298.923,214.781 298.256,216.448 296.5,217.5C 296.402,215.447 297.069,213.78 298.5,212.5 Z"/></g>
<g><path style="opacity:1" fill="#ffa936" d="M 319.5,201.5 C 319.549,205.078 320.215,208.411 321.5,211.5C 321.192,213.924 321.526,216.257 322.5,218.5C 323.429,217.311 323.762,215.978 323.5,214.5C 323.754,210.061 324.588,205.728 326,201.5C 329.601,200.18 333.101,200.18 336.5,201.5C 336.721,204.067 337.388,206.401 338.5,208.5C 338.5,208.833 338.5,209.167 338.5,209.5C 338.547,212.568 339.047,215.568 340,218.5C 340.662,216.187 341.162,213.854 341.5,211.5C 341.301,208.059 341.801,204.726 343,201.5C 345.937,200.183 348.77,200.183 351.5,201.5C 349.849,208.105 348.515,214.771 347.5,221.5C 347.683,223.936 347.016,226.103 345.5,228C 341.789,228.825 338.122,228.659 334.5,227.5C 333.319,223.928 332.652,220.262 332.5,216.5C 332.509,214.692 332.009,213.025 331,211.5C 330.51,212.793 330.343,214.127 330.5,215.5C 329.262,219.329 328.262,223.329 327.5,227.5C 324.101,228.82 320.601,228.82 317,227.5C 314.046,218.685 311.879,209.685 310.5,200.5C 313.713,200.19 316.713,200.523 319.5,201.5 Z"/></g>
<g><path style="opacity:1" fill="#ffa732" d="M 370.5,201.5 C 370.66,203.153 371.326,204.486 372.5,205.5C 373.234,206.708 373.567,208.041 373.5,209.5C 373.171,212.228 373.837,214.562 375.5,216.5C 375.171,219.228 375.837,221.562 377.5,223.5C 377.5,224.833 377.5,226.167 377.5,227.5C 375.034,228.634 372.367,228.801 369.5,228C 368.947,226.122 367.947,224.622 366.5,223.5C 364.833,223.5 363.167,223.5 361.5,223.5C 361.5,224.833 361.5,226.167 361.5,227.5C 358.055,228.984 354.722,228.818 351.5,227C 353.27,221.858 354.936,216.691 356.5,211.5C 358.28,210.01 358.946,208.01 358.5,205.5C 358.421,204.07 358.754,202.736 359.5,201.5C 363.315,200.192 366.981,200.192 370.5,201.5 Z M 366.5,214.5 C 366.715,216.179 366.048,217.179 364.5,217.5C 364.343,216.127 364.51,214.793 365,213.5C 365.383,214.056 365.883,214.389 366.5,214.5 Z"/></g>
<g><path style="opacity:1" fill="#ffa838" d="M 399.5,203.5 C 401.22,206.889 401.887,210.556 401.5,214.5C 399.208,217.353 399.541,220.019 402.5,222.5C 402.5,223.833 402.5,225.167 402.5,226.5C 399.196,229.157 395.863,228.991 392.5,226C 391.475,223.929 390.642,221.762 390,219.5C 389.782,222.426 389.282,225.26 388.5,228C 385.304,228.805 382.304,228.638 379.5,227.5C 379.5,226.833 379.5,226.167 379.5,225.5C 379.233,217.098 379.233,208.764 379.5,200.5C 383.846,200.334 388.179,200.501 392.5,201C 395.191,201.156 397.524,201.989 399.5,203.5 Z M 392.5,208.5 C 392.88,210.698 392.213,212.365 390.5,213.5C 389.699,211.958 389.366,210.292 389.5,208.5C 390.5,208.5 391.5,208.5 392.5,208.5 Z"/></g>
<g><path style="opacity:0.325" fill="#ffe5ae" d="M 405.5,201.5 C 405.5,210.167 405.5,218.833 405.5,227.5C 404.778,227.082 404.278,226.416 404,225.5C 403.617,226.056 403.117,226.389 402.5,226.5C 402.5,225.167 402.5,223.833 402.5,222.5C 403.222,222.918 403.722,223.584 404,224.5C 404.171,216.656 404.671,208.989 405.5,201.5 Z"/></g>
<g><path style="opacity:1" fill="#ffa631" d="M 416.5,201.5 C 416.796,203.403 417.463,205.07 418.5,206.5C 419.924,208.515 420.59,210.848 420.5,213.5C 420.737,217.289 421.404,217.289 422.5,213.5C 422.986,209.053 424.32,204.886 426.5,201C 430.379,201.187 434.045,201.354 437.5,201.5C 437.5,210.167 437.5,218.833 437.5,227.5C 435.105,228.814 432.605,228.814 430,227.5C 429.501,223.848 429.335,220.182 429.5,216.5C 429.657,215.127 429.49,213.793 429,212.5C 427.648,215.72 426.814,219.053 426.5,222.5C 426.438,228.023 423.771,229.856 418.5,228C 416.47,224.411 415.137,220.578 414.5,216.5C 414.509,214.692 414.009,213.025 413,211.5C 412.501,216.823 412.334,222.156 412.5,227.5C 410.274,228.756 407.941,228.756 405.5,227.5C 405.5,218.833 405.5,210.167 405.5,201.5C 409.167,200.167 412.833,200.167 416.5,201.5 Z"/></g>
<g><path style="opacity:0.149" fill="#fed2ea" d="M 437.5,201.5 C 438.402,204.983 439.068,208.65 439.5,212.5C 438.335,216.993 438.335,221.327 439.5,225.5C 439.5,226.167 439.5,226.833 439.5,227.5C 438.833,227.5 438.167,227.5 437.5,227.5C 437.5,218.833 437.5,210.167 437.5,201.5 Z"/></g>
<g><path style="opacity:1" fill="#ffa632" d="M 459.5,206.5 C 459.32,210.286 460.32,213.619 462.5,216.5C 462.5,216.833 462.5,217.167 462.5,217.5C 462.259,219.898 462.926,221.898 464.5,223.5C 465.728,225.01 465.728,226.51 464.5,228C 461.833,228.667 459.167,228.667 456.5,228C 455.748,227.329 455.414,226.496 455.5,225.5C 453.721,223.656 451.388,222.99 448.5,223.5C 448.5,224.833 448.5,226.167 448.5,227.5C 445.5,228.833 442.5,228.833 439.5,227.5C 439.5,226.833 439.5,226.167 439.5,225.5C 441.074,223.898 441.741,221.898 441.5,219.5C 442.097,215.381 443.097,211.381 444.5,207.5C 446.28,206.01 446.946,204.01 446.5,201.5C 449.64,200.359 452.973,200.192 456.5,201C 458.671,202.174 459.671,204.007 459.5,206.5 Z M 452.5,212.5 C 452.421,213.93 452.754,215.264 453.5,216.5C 453.043,217.298 452.376,217.631 451.5,217.5C 451.216,215.585 451.549,213.919 452.5,212.5 Z"/></g>
<g><path style="opacity:0.004" fill="#ffdddd" d="M 52.5,202.5 C 54.0269,202.427 55.0269,203.094 55.5,204.5C 53.9731,204.573 52.9731,203.906 52.5,202.5 Z"/></g>
<g><path style="opacity:0.063" fill="#ffcbd8" d="M 79.5,201.5 C 81.4354,205.895 82.7687,210.562 83.5,215.5C 81.2538,211.195 79.9205,206.529 79.5,201.5 Z"/></g>
<g><path style="opacity:0.055" fill="#ffcbd8" d="M 303.5,201.5 C 305.435,205.895 306.769,210.562 307.5,215.5C 305.254,211.195 303.92,206.529 303.5,201.5 Z"/></g>
<g><path style="opacity:0.059" fill="#ffc7d1" d="M 370.5,201.5 C 372.104,202.287 372.771,203.62 372.5,205.5C 371.326,204.486 370.66,203.153 370.5,201.5 Z"/></g>
<g><path style="opacity:0.024" fill="#ffcad4" d="M 416.5,201.5 C 418.213,202.635 418.88,204.302 418.5,206.5C 417.463,205.07 416.796,203.403 416.5,201.5 Z"/></g>
<g><path style="opacity:0.02" fill="#ffd1df" d="M 163.5,201.5 C 165.41,204.452 166.41,207.786 166.5,211.5C 164.899,208.45 163.899,205.116 163.5,201.5 Z"/></g>
<g><path style="opacity:0.165" fill="#ffc7cd" d="M 194.5,201.5 C 196.293,203.426 197.293,205.759 197.5,208.5C 195.707,206.574 194.707,204.241 194.5,201.5 Z"/></g>
<g><path style="opacity:0.016" fill="#ffd8e6" d="M 336.5,201.5 C 338.163,203.438 338.829,205.772 338.5,208.5C 337.388,206.401 336.721,204.067 336.5,201.5 Z"/></g>
<g><path style="opacity:0.008" fill="#ffc5ce" d="M 351.5,201.5 C 352.124,201.917 352.457,202.584 352.5,203.5C 351.118,209.706 349.452,215.706 347.5,221.5C 348.515,214.771 349.849,208.105 351.5,201.5 Z"/></g>
<g><path style="opacity:0.325" fill="#ffc2c3" d="M 254.5,203.5 C 255.906,203.973 256.573,204.973 256.5,206.5C 255.094,206.027 254.427,205.027 254.5,203.5 Z"/></g>
<g><path style="opacity:1" fill="#ffcf76" d="M 446.5,201.5 C 446.946,204.01 446.28,206.01 444.5,207.5C 444.875,205.302 445.542,203.302 446.5,201.5 Z"/></g>
<g><path style="opacity:0.271" fill="#ffc9cf" d="M 55.5,204.5 C 56.9063,204.973 57.573,205.973 57.5,207.5C 56.0937,207.027 55.427,206.027 55.5,204.5 Z"/></g>
<g><path style="opacity:1" fill="#ffdd92" d="M 67.5,202.5 C 67.8294,205.228 67.1628,207.562 65.5,209.5C 65.7215,206.933 66.3882,204.599 67.5,202.5 Z"/></g>
<g><path style="opacity:0.292" fill="#ffcaca" d="M 100.5,208.5 C 99.5,208.5 98.5,208.5 97.5,208.5C 97.5,210.167 97.5,211.833 97.5,213.5C 98.5,213.5 99.5,213.5 100.5,213.5C 99.4324,214.434 98.099,214.768 96.5,214.5C 96.5,212.167 96.5,209.833 96.5,207.5C 98.099,207.232 99.4324,207.566 100.5,208.5 Z"/></g>
<g><path style="opacity:0.004" fill="#ffeeed" d="M 228.5,208.5 C 226.369,209.314 224.036,209.814 221.5,210C 222.416,210.278 223.082,210.778 223.5,211.5C 222.5,211.5 221.5,211.5 220.5,211.5C 220.5,210.5 220.5,209.5 220.5,208.5C 223.167,208.5 225.833,208.5 228.5,208.5 Z"/></g>
<g><path style="opacity:0.286" fill="#ffb8bb" d="M 319.5,201.5 C 321.011,204.544 321.678,207.878 321.5,211.5C 320.215,208.411 319.549,205.078 319.5,201.5 Z"/></g>
<g><path style="opacity:0.019" fill="#ffdff3" d="M 392.5,208.5 C 391.5,208.5 390.5,208.5 389.5,208.5C 389.366,210.292 389.699,211.958 390.5,213.5C 388.692,212.082 388.025,210.082 388.5,207.5C 390.099,207.232 391.432,207.566 392.5,208.5 Z"/></g>
<g><path style="opacity:0.38" fill="#ffc0c8" d="M 399.5,203.5 C 400.458,203.953 401.292,204.619 402,205.5C 402.805,208.696 402.638,211.696 401.5,214.5C 401.887,210.556 401.22,206.889 399.5,203.5 Z"/></g>
<g><path style="opacity:0.591" fill="#ffb7b9" d="M 108.5,204.5 C 109.117,204.611 109.617,204.944 110,205.5C 110.808,209.027 110.641,212.36 109.5,215.5C 109.677,211.766 109.344,208.099 108.5,204.5 Z"/></g>
<g><path style="opacity:0.189" fill="#ffe0c1" d="M 120.5,201.5 C 121.5,201.5 122.5,201.5 123.5,201.5C 123.5,203.833 123.5,206.167 123.5,208.5C 125.5,208.5 127.5,208.5 129.5,208.5C 129.5,214.833 129.5,221.167 129.5,227.5C 128.51,221.69 128.177,215.69 128.5,209.5C 126.167,209.5 123.833,209.5 121.5,209.5C 121.823,215.69 121.49,221.69 120.5,227.5C 120.5,218.833 120.5,210.167 120.5,201.5 Z"/></g>
<g><path style="opacity:0.004" fill="#ffe2e4" d="M 245.5,208.5 C 246.167,209.167 246.833,209.833 247.5,210.5C 246.325,210.719 245.325,210.386 244.5,209.5C 244.624,208.893 244.957,208.56 245.5,208.5 Z"/></g>
<g><path style="opacity:1" fill="#ffcf76" d="M 358.5,205.5 C 358.946,208.01 358.28,210.01 356.5,211.5C 356.875,209.302 357.542,207.302 358.5,205.5 Z"/></g>
<g><path style="opacity:0.98" fill="#ffdc8c" d="M 150.5,207.5 C 150.741,209.898 150.074,211.898 148.5,213.5C 148.595,211.214 149.262,209.214 150.5,207.5 Z"/></g>
<g><path style="opacity:0.012" fill="#ffe1dd" d="M 248.5,209.5 C 250.167,209.5 251.833,209.5 253.5,209.5C 252.833,210.167 252.167,210.833 251.5,211.5C 249.901,211.768 248.568,211.434 247.5,210.5C 248.167,210.5 248.5,210.167 248.5,209.5 Z"/></g>
<g><path style="opacity:1" fill="#ffd27b" d="M 290.5,206.5 C 290.829,209.228 290.163,211.562 288.5,213.5C 288.721,210.933 289.388,208.599 290.5,206.5 Z"/></g>
<g><path style="opacity:0.039" fill="#ffdcd9" d="M 57.5,207.5 C 58.4511,208.919 58.7845,210.585 58.5,212.5C 55.3442,213.551 52.3442,213.551 49.5,212.5C 52.2062,212.425 54.8728,212.092 57.5,211.5C 57.5,210.167 57.5,208.833 57.5,207.5 Z"/></g>
<g><path style="opacity:0.016" fill="#ffd1d6" d="M 366.5,214.5 C 365.883,214.389 365.383,214.056 365,213.5C 364.51,214.793 364.343,216.127 364.5,217.5C 363.482,214.623 363.649,211.623 365,208.5C 365.813,210.436 366.313,212.436 366.5,214.5 Z"/></g>
<g><path style="opacity:0.141" fill="#ffc1c4" d="M 459.5,206.5 C 460.87,209.619 461.87,212.952 462.5,216.5C 460.32,213.619 459.32,210.286 459.5,206.5 Z"/></g>
<g><path style="opacity:0.055" fill="#ffcdc9" d="M 74.5,213.5 C 72.3796,214.403 72.0462,215.737 73.5,217.5C 72.4138,217.38 71.7472,216.713 71.5,215.5C 71.8809,212.959 72.7143,210.626 74,208.5C 74.4935,210.134 74.6602,211.801 74.5,213.5 Z"/></g>
<g><path style="opacity:0.055" fill="#ffc8c4" d="M 298.5,212.5 C 297.069,213.78 296.402,215.447 296.5,217.5C 295.505,214.424 296.005,211.424 298,208.5C 298.49,209.793 298.657,211.127 298.5,212.5 Z"/></g>
<g><path style="opacity:0.464" fill="#feb4aa" d="M 414.5,216.5 C 413.833,220.167 413.167,223.833 412.5,227.5C 412.334,222.156 412.501,216.823 413,211.5C 414.009,213.025 414.509,214.692 414.5,216.5 Z"/></g>
<g><path style="opacity:0.016" fill="#ffced0" d="M 158.5,212.5 C 157.072,214.074 156.739,215.741 157.5,217.5C 156.503,217.53 155.836,217.03 155.5,216C 156.104,213.416 156.937,210.916 158,208.5C 158.49,209.793 158.657,211.127 158.5,212.5 Z"/></g>
<g><path style="opacity:0.432" fill="#feb1ac" d="M 193.5,215.5 C 192.833,219.5 192.167,223.5 191.5,227.5C 191.334,222.489 191.501,217.489 192,212.5C 193.039,213.244 193.539,214.244 193.5,215.5 Z"/></g>
<g><path style="opacity:0.882" fill="#ffb7a9" d="M 373.5,209.5 C 374.612,211.599 375.279,213.933 375.5,216.5C 373.837,214.562 373.171,212.228 373.5,209.5 Z"/></g>
<g><path style="opacity:0.012" fill="#ffd9de" d="M 332.5,216.5 C 331.833,216.167 331.167,215.833 330.5,215.5C 330.343,214.127 330.51,212.793 331,211.5C 332.009,213.025 332.509,214.692 332.5,216.5 Z"/></g>
<g><path style="opacity:0.012" fill="#ffd8d9" d="M 338.5,209.5 C 339.29,210.609 339.79,211.942 340,213.5C 340.278,212.584 340.778,211.918 341.5,211.5C 341.162,213.854 340.662,216.187 340,218.5C 339.047,215.568 338.547,212.568 338.5,209.5 Z"/></g>
<g><path style="opacity:0.384" fill="#ffdab9" d="M 420.5,213.5 C 421.167,213.5 421.833,213.5 422.5,213.5C 421.404,217.289 420.737,217.289 420.5,213.5 Z"/></g>
<g><path style="opacity:0.141" fill="#ffd0e0" d="M 452.5,212.5 C 451.549,213.919 451.216,215.585 451.5,217.5C 450.299,214.595 450.466,211.595 452,208.5C 452.49,209.793 452.657,211.127 452.5,212.5 Z"/></g>
<g><path style="opacity:0.867" fill="#ffd4ae" d="M 59.5,216.5 C 56.3915,216.264 53.3915,216.597 50.5,217.5C 50.4148,216.005 51.0815,215.005 52.5,214.5C 54.9823,215.067 57.3157,215.734 59.5,216.5 Z"/></g>
<g><path style="opacity:0.004" fill="#ffcfd9" d="M 429.5,216.5 C 428.5,218.5 427.5,220.5 426.5,222.5C 426.814,219.053 427.648,215.72 429,212.5C 429.49,213.793 429.657,215.127 429.5,216.5 Z"/></g>
<g><path style="opacity:0.09" fill="#ffc6d5" d="M 307.5,215.5 C 308.924,217.515 309.59,219.848 309.5,222.5C 308.076,220.485 307.41,218.152 307.5,215.5 Z"/></g>
<g><path style="opacity:1" fill="#ffd179" d="M 64.5,213.5 C 64.8294,216.228 64.1628,218.562 62.5,220.5C 62.7215,217.933 63.3882,215.599 64.5,213.5 Z"/></g>
<g><path style="opacity:0.035" fill="#ffe9df" d="M 241.5,216.5 C 243.626,217.048 245.626,217.715 247.5,218.5C 246.209,218.263 245.209,218.596 244.5,219.5C 243.609,218.89 242.609,218.557 241.5,218.5C 241.5,217.833 241.5,217.167 241.5,216.5 Z"/></g>
<g><path style="opacity:1" fill="#ffd179" d="M 288.5,213.5 C 288.829,216.228 288.163,218.562 286.5,220.5C 286.721,217.933 287.388,215.599 288.5,213.5 Z"/></g>
<g><path style="opacity:0.776" fill="#ffc49a" d="M 321.5,211.5 C 322.167,212.5 322.833,213.5 323.5,214.5C 323.762,215.978 323.429,217.311 322.5,218.5C 321.526,216.257 321.192,213.924 321.5,211.5 Z"/></g>
<g><path style="opacity:0.294" fill="#ffc6d3" d="M 272.5,218.5 C 271.791,219.404 270.791,219.737 269.5,219.5C 269.806,222.385 269.473,225.052 268.5,227.5C 268.5,224.5 268.5,221.5 268.5,218.5C 269.833,218.5 271.167,218.5 272.5,218.5 Z"/></g>
<g><path style="opacity:0.129" fill="#ffc4cf" d="M 330.5,215.5 C 330.436,219.22 329.936,222.886 329,226.5C 328.617,227.056 328.117,227.389 327.5,227.5C 328.262,223.329 329.262,219.329 330.5,215.5 Z"/></g>
<g><path style="opacity:0.004" fill="#fff0f0" d="M 227.5,217.5 C 225.708,218.309 223.708,218.809 221.5,219C 224.036,219.186 226.369,219.686 228.5,220.5C 225.833,220.5 223.167,220.5 220.5,220.5C 220.5,219.5 220.5,218.5 220.5,217.5C 222.833,217.5 225.167,217.5 227.5,217.5 Z"/></g>
<g><path style="opacity:0.141" fill="#fff0c4" d="M 34.5,210.5 C 34.1499,215.031 34.8166,219.364 36.5,223.5C 35.2101,222.942 34.3768,221.942 34,220.5C 33.1925,216.973 33.3592,213.64 34.5,210.5 Z"/></g>
<g><path style="opacity:0.279" fill="#ffced9" d="M 103.5,220.5 C 101.735,221.461 99.7354,221.795 97.5,221.5C 97.7947,223.735 97.4614,225.735 96.5,227.5C 96.5,225.167 96.5,222.833 96.5,220.5C 98.8333,220.5 101.167,220.5 103.5,220.5 Z"/></g>
<g><path style="opacity:0.282" fill="#ffc5a5" d="M 244.5,219.5 C 245.708,220.234 247.041,220.567 248.5,220.5C 248.083,221.124 247.416,221.457 246.5,221.5C 245.287,221.253 244.62,220.586 244.5,219.5 Z"/></g>
<g><path style="opacity:0.933" fill="#ffb6a4" d="M 375.5,216.5 C 376.612,218.599 377.279,220.933 377.5,223.5C 375.837,221.562 375.171,219.228 375.5,216.5 Z"/></g>
<g><path style="opacity:0.741" fill="#ffbbbc" d="M 462.5,217.5 C 463.738,219.214 464.405,221.214 464.5,223.5C 462.926,221.898 462.259,219.898 462.5,217.5 Z"/></g>
<g><path style="opacity:1" fill="#ffd179" d="M 147.5,217.5 C 147.829,220.228 147.163,222.562 145.5,224.5C 145.721,221.933 146.388,219.599 147.5,217.5 Z"/></g>
<g><path style="opacity:1" fill="#ffd075" d="M 441.5,219.5 C 441.741,221.898 441.074,223.898 439.5,225.5C 439.595,223.214 440.262,221.214 441.5,219.5 Z"/></g>
<g><path style="opacity:0.004" fill="#ffeae3" d="M 161.5,227.5 C 160.596,226.791 160.263,225.791 160.5,224.5C 157.325,223.909 154.991,224.909 153.5,227.5C 153.33,226.178 153.663,225.011 154.5,224C 156.81,223.503 159.143,223.337 161.5,223.5C 161.5,224.833 161.5,226.167 161.5,227.5 Z"/></g>
<g><path style="opacity:0.005" fill="#fff3f6" d="M 455.5,225.5 C 453.621,224.659 451.621,224.325 449.5,224.5C 449.737,225.791 449.404,226.791 448.5,227.5C 448.5,226.167 448.5,224.833 448.5,223.5C 451.388,222.99 453.721,223.656 455.5,225.5 Z"/></g>
<g><path style="opacity:1" fill="#ffcf76" d="M 62.5,220.5 C 62.9465,223.01 62.2798,225.01 60.5,226.5C 60.8751,224.302 61.5418,222.302 62.5,220.5 Z"/></g>
<g><path style="opacity:1" fill="#ffcf76" d="M 286.5,220.5 C 286.946,223.01 286.28,225.01 284.5,226.5C 284.875,224.302 285.542,222.302 286.5,220.5 Z"/></g>
<g><path style="opacity:0.043" fill="#ffd5e1" d="M 377.5,223.5 C 378.167,224.167 378.833,224.833 379.5,225.5C 379.5,226.167 379.5,226.833 379.5,227.5C 378.833,227.5 378.167,227.5 377.5,227.5C 377.5,226.167 377.5,224.833 377.5,223.5 Z"/></g>
<g><path style="opacity:0.004" fill="#ffe6ea" d="M 56.5,224.5 C 56.0269,225.906 55.0269,226.573 53.5,226.5C 53.9731,225.094 54.9731,224.427 56.5,224.5 Z"/></g>
<g><path style="opacity:0.361" fill="#ffe1b0" d="M 237.5,224.5 C 239.027,224.427 240.027,225.094 240.5,226.5C 238.973,226.573 237.973,225.906 237.5,224.5 Z"/></g>
<g><path style="opacity:0.006" fill="#fff0d7" d="M 36.5,223.5 C 38.7772,224.449 40.7772,225.782 42.5,227.5C 39.7079,227.378 37.7079,226.044 36.5,223.5 Z"/></g>
<g><path style="opacity:0.106" fill="#ffe7cf" d="M 77.5,227.5 C 76.596,226.791 76.2627,225.791 76.5,224.5C 74.5,224.5 72.5,224.5 70.5,224.5C 70.7373,225.791 70.404,226.791 69.5,227.5C 69.5,226.167 69.5,224.833 69.5,223.5C 72.1667,223.5 74.8333,223.5 77.5,223.5C 77.5,224.833 77.5,226.167 77.5,227.5 Z"/></g>
<g><path style="opacity:0.09" fill="#ffe7cf" d="M 301.5,227.5 C 300.596,226.791 300.263,225.791 300.5,224.5C 298.5,224.5 296.5,224.5 294.5,224.5C 294.737,225.791 294.404,226.791 293.5,227.5C 293.5,226.167 293.5,224.833 293.5,223.5C 296.167,223.5 298.833,223.5 301.5,223.5C 301.5,224.833 301.5,226.167 301.5,227.5 Z"/></g>
<g><path style="opacity:0.008" fill="#ffe1ef" d="M 366.5,223.5 C 365.432,224.434 364.099,224.768 362.5,224.5C 362.737,225.791 362.404,226.791 361.5,227.5C 361.5,226.167 361.5,224.833 361.5,223.5C 363.167,223.5 364.833,223.5 366.5,223.5 Z"/></g>
<g><path style="opacity:0.005" fill="#fff6da" d="M 112.5,201.5 C 112.5,210.167 112.5,218.833 112.5,227.5C 115.167,227.5 117.833,227.5 120.5,227.5C 117.713,228.477 114.713,228.81 111.5,228.5C 111.173,219.318 111.507,210.318 112.5,201.5 Z"/></g>
</svg>